HIERARCHY
ROOT Pelvis
{
	OFFSET 0.000000 0.000000 0.000000
	CHANNELS 6 Xposition Yposition Zposition Xrotation Yrotation Zrotation
	JOINT LeftUpLeg_virtual
	{
		OFFSET 0.000000 0.000000 0.000000
		CHANNELS 3 Xrotation Yrotation Zrotation
		JOINT LeftUpLeg
		{
			OFFSET 18.735201 -5.666702 -4.541200
			CHANNELS 3 Xrotation Yrotation Zrotation
			JOINT LeftLeg
			{
				OFFSET -0.021200 -31.938179 0.493100
				CHANNELS 3 Xrotation Yrotation Zrotation
				JOINT LeftFoot
				{
					OFFSET 0.021200 -31.938179 -4.336299
					CHANNELS 3 Xrotation Yrotation Zrotation
					JOINT LeftToeBase
					{
						OFFSET 0.943001 -26.722000 15.023500
						CHANNELS 3 Xrotation Yrotation Zrotation
						End Site
						{
							OFFSET 0 0 0
						}
					}
				}
			}
		}
	}
	JOINT RightUpLeg_virtual
	{
		OFFSET 0.000000 0.000000 0.000000
		CHANNELS 3 Xrotation Yrotation Zrotation
		JOINT RightUpLeg
		{
			OFFSET -18.735201 -5.666702 -4.541200
			CHANNELS 3 Xrotation Yrotation Zrotation
			JOINT RightLeg
			{
				OFFSET 0.018946 -31.938133 0.493100
				CHANNELS 3 Xrotation Yrotation Zrotation
				JOINT RightFoot
				{
					OFFSET -0.018946 -31.938126 -4.336299
					CHANNELS 3 Xrotation Yrotation Zrotation
					JOINT RightToeBase
					{
						OFFSET -0.943001 -26.722004 15.023500
						CHANNELS 3 Xrotation Yrotation Zrotation
						End Site
						{
							OFFSET 0 0 0
						}
					}
				}
			}
		}
	}
	JOINT Hips_virtual
	{
		OFFSET 0.000000 0.000000 0.000000
		CHANNELS 3 Xrotation Yrotation Zrotation
		JOINT Hips
		{
			OFFSET -0.000000 -0.000000 -0.000000
			CHANNELS 3 Xrotation Yrotation Zrotation
			JOINT Spine
			{
				OFFSET 0.000000 10.199997 -0.299500
				CHANNELS 3 Xrotation Yrotation Zrotation
				JOINT Spine1
				{
					OFFSET 0.000000 11.900002 -1.516600
					CHANNELS 3 Xrotation Yrotation Zrotation
					JOINT Spine2
					{
						OFFSET 0.000000 13.600006 -2.842500
						CHANNELS 3 Xrotation Yrotation Zrotation
						JOINT Neck_virtual
						{
							OFFSET 0.000000 0.000000 0.000000
							CHANNELS 3 Xrotation Yrotation Zrotation
							JOINT Neck
							{
								OFFSET 0.000000 9.624100 -2.890100
								CHANNELS 3 Xrotation Yrotation Zrotation
								JOINT Head
								{
									OFFSET 0.000000 14.068802 -1.351900
									CHANNELS 3 Xrotation Yrotation Zrotation
									End Site
									{
										OFFSET 0 0 0
									}
								}
							}
						}
						JOINT LeftShoulder_virtual
						{
							OFFSET 0.000000 0.000000 0.000000
							CHANNELS 3 Xrotation Yrotation Zrotation
							JOINT LeftShoulder
							{
								OFFSET 15.263000 10.923401 -0.547700
								CHANNELS 3 Xrotation Yrotation Zrotation
								JOINT LeftArm
								{
									OFFSET 25.438599 -2.830597 -13.032500
									CHANNELS 3 Xrotation Yrotation Zrotation
									JOINT LeftForeArm
									{
										OFFSET 29.960503 0.000000 0.000000
										CHANNELS 3 Xrotation Yrotation Zrotation
										JOINT LeftHand
										{
											OFFSET 27.849251 0.000000 0.000000
											CHANNELS 3 Xrotation Yrotation Zrotation
											End Site
											{
												OFFSET 0 0 0
											}
										}
									}
								}
							}
						}
						JOINT RightShoulder_virtual
						{
							OFFSET 0.000000 0.000000 0.000000
							CHANNELS 3 Xrotation Yrotation Zrotation
							JOINT RightShoulder
							{
								OFFSET -15.263000 10.923401 -0.547700
								CHANNELS 3 Xrotation Yrotation Zrotation
								JOINT RightArm
								{
									OFFSET -25.438599 -2.830597 -13.032500
									CHANNELS 3 Xrotation Yrotation Zrotation
									JOINT RightForeArm
									{
										OFFSET -29.960503 0.000000 0.000000
										CHANNELS 3 Xrotation Yrotation Zrotation
										JOINT RightHand
										{
											OFFSET -27.849251 0.000000 0.000000
											CHANNELS 3 Xrotation Yrotation Zrotation
											End Site
											{
												OFFSET 0 0 0
											}
										}
									}
								}
							}
						}
					}
				}
			}
		}
	}
}
MOTION
Frames: 11
Frame Time: 0.03333333
-8.270105 90.939659 13.899639 0.000000 0.000000 0.000000 -1.001380 -16.307772 1.348247 -9.726534 7.796395 16.386384 16.125042 -9.711317 -7.441297 -5.172075 -6.308973 -9.769736 0.000000 0.000000 0.000000 -0.913035 -14.941256 1.462185 -15.820105 -4.682949 -16.698616 28.327103 0.188804 2.387181 -7.037554 0.424874 4.956334 0.000000 0.000000 0.000000 -1.360905 -15.445566 1.520807 -0.677286 0.025609 -0.121600 5.186176 2.480954 0.977470 -0.537065 -0.573490 1.620750 0.000000 0.000000 0.000000 -1.839182 0.593136 0.792891 0.849986 -1.432419 0.096278 0.000000 0.000000 0.000000 -0.873268 0.415470 1.538577 -1.089665 -1.959097 -10.252330 9.259208 -23.710609 -53.767304 -7.617489 -25.006091 -7.072649 0.000000 0.000000 0.000000 -2.453382 0.975763 0.991146 4.577377 5.875654 13.429398 -3.146396 12.502688 51.435112 12.646187 27.652745 1.334822 0.000000 0.000000 0.000000 
-8.255867 91.139214 13.667461 0.000000 0.000000 0.000000 -0.959911 -16.401133 1.273021 -9.304511 7.004759 16.175141 15.339355 -9.879280 -7.267331 -5.695777 -6.400174 -10.248058 0.000000 0.000000 0.000000 -1.077362 -14.970665 1.378709 -16.089067 -4.762451 -16.657233 28.525201 0.017890 2.429830 -6.794115 0.450815 4.176965 0.000000 0.000000 0.000000 -1.473602 -15.572225 1.414807 -0.695454 0.025676 -0.113327 5.290633 2.386136 1.127463 -0.526404 -0.547720 1.602434 0.000000 0.000000 0.000000 -1.841726 0.609768 0.770431 0.883995 -1.428474 0.215387 0.000000 0.000000 0.000000 -0.611063 0.436358 1.346078 -1.129643 -2.026957 -10.243577 9.168328 -23.532421 -53.818909 -7.158032 -23.559684 -6.828318 0.000000 0.000000 0.000000 -2.322820 1.051415 0.955717 4.628918 6.482829 13.128993 -2.881761 12.379878 52.289941 12.910278 27.334303 1.040227 0.000000 0.000000 0.000000 
-8.161497 91.447800 13.237778 0.000000 0.000000 0.000000 -0.616620 -16.467776 1.171346 -9.641398 6.356365 16.081341 15.115907 -9.697334 -6.985570 -5.230925 -6.489736 -10.884148 0.000000 0.000000 0.000000 -0.929125 -15.038922 1.287684 -16.364013 -5.049257 -16.763998 28.210350 0.121663 2.566059 -6.669161 0.895737 4.202402 0.000000 0.000000 0.000000 -1.231819 -15.723615 1.286981 -0.711879 0.036383 -0.107109 5.131122 2.370625 1.212821 -0.425817 -0.481009 1.605497 0.000000 0.000000 0.000000 -1.776553 0.686713 0.816673 1.009084 -1.406116 0.319213 0.000000 0.000000 0.000000 -0.378321 0.494699 1.147784 -1.238695 -2.029687 -9.858523 8.604014 -23.791653 -53.100964 -6.657746 -22.933019 -6.784089 0.000000 0.000000 0.000000 -2.171977 1.202589 1.002156 4.693061 7.310434 12.342864 -2.637141 12.656991 52.757064 13.460381 26.922468 0.378095 0.000000 0.000000 0.000000 
-8.003167 91.754768 12.571419 0.000000 0.000000 0.000000 0.071236 -16.497480 1.056953 -11.047285 5.925590 16.090385 16.020379 -9.243273 -6.540273 -4.064608 -6.453935 -11.479568 0.000000 0.000000 0.000000 -0.388482 -15.095866 1.195707 -17.054291 -5.324124 -17.109156 27.882186 0.593557 2.834121 -6.630388 1.823137 5.094711 0.000000 0.000000 0.000000 -0.603058 -15.871755 1.162059 -0.730605 0.039731 -0.115514 4.752875 2.429215 1.238114 -0.265476 -0.372293 1.589816 0.000000 0.000000 0.000000 -1.684139 0.829508 0.851021 1.181147 -1.373663 0.408248 0.000000 0.000000 0.000000 -0.223502 0.595616 0.925176 -1.379691 -1.980598 -9.067269 7.196925 -24.137354 -52.122290 -6.243402 -24.025868 -6.983015 0.000000 0.000000 0.000000 -2.063755 1.412842 1.081134 4.814751 8.038411 11.158790 -3.116579 13.104781 52.781451 14.303021 27.400077 -0.752467 0.000000 0.000000 0.000000 
-7.834004 91.935623 11.693085 0.000000 0.000000 0.000000 1.147685 -16.462776 0.954762 -13.774670 5.648445 16.248672 18.197946 -8.669004 -5.949413 -3.024217 -6.343087 -12.155909 0.000000 0.000000 0.000000 0.575081 -15.138670 1.130986 -18.642230 -5.435586 -17.698079 28.212144 1.300935 3.246866 -6.737404 3.066116 6.431188 0.000000 0.000000 0.000000 0.472538 -15.968096 1.064246 -0.747406 0.025637 -0.122866 4.251146 2.504062 1.235732 -0.076858 -0.231642 1.543510 0.000000 0.000000 0.000000 -1.588151 1.031098 0.829458 1.342538 -1.327006 0.509942 0.000000 0.000000 0.000000 -0.178556 0.748518 0.654898 -1.518320 -1.869142 -8.020962 4.513517 -24.257323 -51.510336 -6.033977 -27.109362 -7.395262 0.000000 0.000000 0.000000 -2.042929 1.669602 1.160220 5.012135 8.675659 9.877741 -4.811508 13.579663 52.464025 15.527928 29.536870 -2.476502 0.000000 0.000000 0.000000 
-7.656733 91.818878 10.620262 0.000000 0.000000 0.000000 2.630420 -16.336102 0.897712 -17.892674 5.424960 16.570756 21.616113 -8.085033 -5.295052 -2.684833 -6.226479 -13.084702 0.000000 0.000000 0.000000 2.022566 -15.142167 1.096979 -21.845523 -5.233374 -18.496583 30.053785 2.082562 3.797563 -7.455890 4.302804 7.586118 0.000000 0.000000 0.000000 2.071048 -16.084771 1.035912 -0.761431 -0.001880 -0.116215 3.851612 2.584364 1.230660 0.113278 -0.063578 1.466199 0.000000 0.000000 0.000000 -1.541916 1.255198 0.750668 1.416718 -1.261476 0.644426 0.000000 0.000000 0.000000 -0.279795 0.935106 0.339928 -1.633662 -1.712348 -6.904762 -0.118583 -24.011190 -51.642131 -6.158744 -32.259605 -8.025665 0.000000 0.000000 0.000000 -2.189170 1.939019 1.228136 5.234965 9.420247 8.756065 -8.360082 14.225123 51.587705 17.257713 33.777837 -4.905832 0.000000 0.000000 0.000000 
-7.484866 91.365685 9.285145 0.000000 0.000000 0.000000 4.529575 -16.190721 0.899294 -23.354321 5.181239 17.029893 26.230320 -7.512438 -4.677829 -3.225431 -6.025263 -14.116723 0.000000 0.000000 0.000000 3.895862 -15.126212 1.113974 -26.827359 -4.600092 -19.303156 33.898922 2.691559 4.454304 -9.282970 5.156118 7.959169 0.000000 0.000000 0.000000 4.141593 -16.118948 1.089536 -0.766254 -0.040481 -0.092313 3.690651 2.686678 1.239231 0.255333 0.124141 1.373502 0.000000 0.000000 0.000000 -1.595311 1.474600 0.639968 1.374267 -1.180831 0.825801 0.000000 0.000000 0.000000 -0.506053 1.129544 0.011249 -1.734408 -1.712256 -5.871117 -6.843704 -23.440875 -52.538764 -6.586016 -39.233928 -8.877760 0.000000 0.000000 0.000000 -2.438248 2.214843 1.269576 5.393317 10.401268 7.928479 -13.884970 14.938305 49.730747 19.776160 39.909328 -8.241080 0.000000 0.000000 0.000000 
-7.369825 90.535240 7.664520 0.000000 0.000000 0.000000 6.757649 -16.070414 0.952832 -29.915880 4.682690 17.511403 31.891970 -6.916214 -4.106466 -4.682174 -5.608795 -14.936667 0.000000 0.000000 0.000000 6.086916 -15.200161 1.174907 -33.262512 -3.540751 -19.853630 39.371355 3.052153 5.110789 -12.303146 5.484900 7.436818 0.000000 0.000000 0.000000 6.604499 -16.051098 1.204060 -0.758868 -0.064148 -0.070086 3.856494 2.794152 1.243426 0.343128 0.294428 1.281942 0.000000 0.000000 0.000000 -1.772622 1.671917 0.530629 1.203544 -1.091896 1.053383 0.000000 0.000000 0.000000 -0.845716 1.288366 -0.268369 -1.811226 -2.023673 -4.958414 -15.415074 -22.796364 -53.895841 -7.349055 -47.182827 -9.997169 0.000000 0.000000 0.000000 -2.698580 2.447287 1.284351 5.422180 11.657683 7.474094 -21.162277 15.938579 46.799425 23.422800 47.002941 -12.767265 0.000000 0.000000 0.000000 
-7.279132 89.361244 5.893055 0.000000 0.000000 0.000000 9.176751 -16.043252 1.049977 -37.021384 3.773434 17.800564 38.195610 -6.383418 -3.519871 -6.909159 -4.975008 -15.333612 0.000000 0.000000 0.000000 8.557144 -15.363153 1.287599 -40.501830 -2.042098 -19.909851 45.606444 3.305023 5.661684 -16.012851 5.504817 6.433993 0.000000 0.000000 0.000000 9.290300 -15.935216 1.354635 -0.750648 -0.059618 -0.059489 4.364604 2.924574 1.262069 0.418607 0.448647 1.201848 0.000000 0.000000 0.000000 -2.044747 1.840044 0.432866 0.927070 -1.003213 1.292603 0.000000 0.000000 0.000000 -1.255736 1.416782 -0.440065 -1.845227 -2.717355 -4.158557 -25.082866 -22.300443 -55.253635 -8.464453 -54.801811 -11.413088 0.000000 0.000000 0.000000 -2.917270 2.615520 1.263153 5.316784 13.019580 7.401226 -30.082527 17.682296 43.715034 28.085574 53.374489 -18.394198 0.000000 0.000000 0.000000 
-7.223876 88.008255 4.215729 0.000000 0.000000 0.000000 11.589374 -16.147826 1.170447 -43.852891 2.543409 17.777015 44.419712 -5.945831 -2.890239 -9.428233 -4.250544 -15.390486 0.000000 0.000000 0.000000 11.129320 -15.653813 1.444783 -47.665080 -0.314816 -19.403043 51.532234 3.469819 6.158975 -19.649194 5.348310 5.394763 0.000000 0.000000 0.000000 11.956327 -15.815588 1.508501 -0.749247 -0.037830 -0.060874 5.085690 3.090076 1.310091 0.491353 0.625785 1.131991 0.000000 0.000000 0.000000 -2.307641 2.017900 0.338189 0.616903 -0.926950 1.498871 0.000000 0.000000 0.000000 -1.638292 1.569012 -0.491989 -1.814725 -3.656006 -3.448333 -34.659764 -21.870797 -56.319281 -9.587933 -60.866268 -12.763851 0.000000 0.000000 0.000000 -3.059650 2.767563 1.207496 5.107507 14.305103 7.563466 -39.853143 20.257486 41.830954 32.529657 57.229868 -23.928745 0.000000 0.000000 0.000000 
-7.213248 86.664749 2.809540 0.000000 0.000000 0.000000 13.807371 -16.350809 1.317727 -49.728777 1.354166 17.499042 49.856655 -5.602624 -2.249125 -11.712034 -3.558212 -15.222007 0.000000 0.000000 0.000000 13.547639 -15.969681 1.618017 -54.177880 1.264098 -18.504456 56.640416 3.509952 6.644966 -22.491249 5.006748 4.457259 0.000000 0.000000 0.000000 14.366101 -15.784936 1.680097 -0.752135 -0.009904 -0.072266 5.956023 3.308165 1.345801 0.564791 0.864660 1.074350 0.000000 0.000000 0.000000 -2.483079 2.227987 0.242290 0.337376 -0.868663 1.643376 0.000000 0.000000 0.000000 -1.925350 1.783490 -0.445217 -1.716512 -4.615766 -2.933201 -43.168066 -21.545490 -57.027182 -10.149872 -64.634907 -13.442092 0.000000 0.000000 0.000000 -3.162869 2.951416 1.132955 4.831643 15.510260 7.917239 -49.390194 22.985388 41.893143 35.315814 58.372142 -27.921125 0.000000 0.000000 0.000000 
